<svg width="19" height="18" viewBox="0 0 19 18" fill="none" xmlns="http://www.w3.org/2000/svg">
<path d="M16.9782 10.2857H10.5496V16.7143C10.5496 17.4214 9.97106 18 9.26392 18C8.55677 18 7.9782 17.4214 7.9782 16.7143V10.2857H1.54963C0.842487 10.2857 0.263916 9.70714 0.263916 9C0.263916 8.29286 0.842487 7.71429 1.54963 7.71429H7.9782V1.28571C7.9782 0.578571 8.55677 0 9.26392 0C9.97106 0 10.5496 0.578571 10.5496 1.28571V7.71429H16.9782C17.6853 7.71429 18.2639 8.29286 18.2639 9C18.2639 9.70714 17.6853 10.2857 16.9782 10.2857Z" fill="#9EABBA"/>
</svg>
