<svg width="8" height="17" viewBox="0 0 8 17" fill="none" xmlns="http://www.w3.org/2000/svg">
<path d="M7.78501 1.84901C7.85369 1.77268 7.90737 1.68288 7.94301 1.58476C7.97865 1.48663 7.99553 1.3821 7.99271 1.27712C7.98988 1.17214 7.96739 1.06877 7.92653 0.972916C7.88567 0.877064 7.82724 0.790603 7.75457 0.718471C7.68189 0.646339 7.59641 0.589948 7.50299 0.552517C7.40956 0.515087 7.31004 0.49735 7.21009 0.50032C7.11015 0.50329 7.01174 0.526908 6.92048 0.569825C6.82922 0.612743 6.74691 0.67412 6.67823 0.750452L0.208067 7.94623C0.0744498 8.09468 0 8.29122 0 8.49551C0 8.6998 0.0744498 8.89634 0.208067 9.04478L6.67823 16.2414C6.74645 16.3194 6.82875 16.3824 6.92034 16.4267C7.01194 16.471 7.111 16.4957 7.21178 16.4995C7.31255 16.5033 7.41304 16.4859 7.5074 16.4486C7.60175 16.4112 7.6881 16.3545 7.76141 16.2818C7.83473 16.2091 7.89356 16.1218 7.93449 16.025C7.97542 15.9282 7.99762 15.8238 7.99982 15.7179C8.00202 15.612 7.98416 15.5067 7.94728 15.4081C7.91041 15.3095 7.85525 15.2196 7.78501 15.1436L1.8081 8.49551L7.78501 1.84901Z" fill="#BFD6ED"/>
</svg>
