<svg width="19" height="19" viewBox="0 0 19 19" fill="none" xmlns="http://www.w3.org/2000/svg">
<path d="M3.73667 2.11111C3.8 3.05056 3.95833 3.96889 4.21167 4.845L2.945 6.11167C2.51222 4.845 2.23778 3.50444 2.14278 2.11111H3.73667ZM14.1444 14.7989C15.0417 15.0522 15.96 15.2106 16.8889 15.2739V16.8467C15.4956 16.7517 14.155 16.4772 12.8778 16.055L14.1444 14.7989ZM4.75 0H1.05556C0.475 0 0 0.475 0 1.05556C0 10.9672 8.03278 19 17.9444 19C18.525 19 19 18.525 19 17.9444V14.2606C19 13.68 18.525 13.205 17.9444 13.205C16.6356 13.205 15.3583 12.9939 14.1761 12.6033C14.0706 12.5611 13.9544 12.5506 13.8489 12.5506C13.5744 12.5506 13.3106 12.6561 13.0994 12.8567L10.7772 15.1789C7.79 13.6483 5.34111 11.21 3.82111 8.22278L6.14333 5.90056C6.43889 5.605 6.52333 5.19333 6.40722 4.82389C6.01667 3.64167 5.80556 2.375 5.80556 1.05556C5.80556 0.475 5.33056 0 4.75 0Z" fill="#6E6E6E"/>
</svg>
