<svg width="21" height="18" viewBox="0 0 21 18" fill="none" xmlns="http://www.w3.org/2000/svg">
<path d="M8.1438 0.5H12.384C12.7512 0.500029 13.1072 0.638467 13.3743 0.876953L13.4856 0.988281L14.7258 2.33789L14.8743 2.5H18.2639C19.0878 2.5 19.7639 3.17614 19.7639 4V16C19.7639 16.8239 19.0878 17.5 18.2639 17.5H2.26392C1.44006 17.5 0.763916 16.8239 0.763916 16V4C0.763916 3.17614 1.44006 2.5 2.26392 2.5H5.65454L5.80396 2.33691L7.02954 0.989258L7.03052 0.990234C7.31752 0.680573 7.72545 0.500034 8.1438 0.5ZM10.2639 4.5C7.22777 4.5 4.76392 6.96386 4.76392 10C4.76392 13.0361 7.22777 15.5 10.2639 15.5C13.3001 15.5 15.7639 13.0361 15.7639 10C15.7639 6.96386 13.3001 4.5 10.2639 4.5Z" stroke="#9EABBA"/>
</svg>
