<svg width="32" height="24" viewBox="0 0 32 24" fill="none" xmlns="http://www.w3.org/2000/svg">
<path d="M24.1114 2.67325C28.7046 4.0093 32 7.66243 32 11.9586C32 14.8829 30.472 17.5113 28.0474 19.312L27.836 19.4614L27.5006 19.692L27.4663 19.7148C26.6149 20.3396 27.1417 21.6541 27.9303 22.7055L28.0766 22.893C28.1261 22.9547 28.1762 23.0151 28.2269 23.0742L28.38 23.2469L28.5154 23.3923L28.6171 23.5088C28.9229 23.8752 28.8931 24.0325 28.5291 23.9945L28.4103 23.9774C28.3375 23.9645 28.2653 23.9488 28.1937 23.9303C27.4153 23.7385 26.6593 23.4659 25.9383 23.1168L25.6686 22.981C25.5817 22.9356 25.4973 22.8905 25.4154 22.8459L25.1783 22.7124L24.9543 22.5806L24.0823 22.0483L23.9103 21.9495L23.7429 21.8603C23.3017 21.6353 22.8971 21.5234 22.4103 21.616L22.3137 21.6365C21.2386 21.7951 20.1487 21.8292 19.0657 21.7382C24.1069 19.7954 27.6051 15.5413 27.6051 10.6061C27.6051 7.62835 26.332 4.89887 24.2143 2.77549L24.1114 2.67325ZM12.9149 0C20.0474 0 25.8303 4.82388 25.8303 10.7725C25.8303 16.7228 20.0474 21.5462 12.9149 21.5462C12.2691 21.5454 11.6364 21.507 11.0166 21.4308L10.6423 21.3797C10.1251 21.2576 9.69657 21.34 9.24629 21.5444L9.076 21.6257L8.90229 21.7183L8.724 21.8194L8.24971 22.1074L7.93829 22.2983L7.60229 22.4993L7.36229 22.6368L7.108 22.7766L6.97486 22.8464L6.69657 22.9867C5.84478 23.4008 4.94861 23.7177 4.02514 23.9314L3.88686 23.9564C3.41771 24.0263 3.36229 23.8558 3.72343 23.4264L3.832 23.3031L3.89429 23.2367C3.94571 23.1821 3.99714 23.1265 4.04857 23.0697L4.2 22.8947L4.34971 22.7124L4.49429 22.5238L4.63429 22.3301L4.76686 22.1324C4.78857 22.0994 4.80971 22.0661 4.83029 22.0324L4.95086 21.8307C5.51143 20.8509 5.73029 19.821 4.98286 19.2745L4.43829 18.8996L4.34457 18.8326C1.68 16.8597 0 13.978 0 10.7725C0 4.82388 5.78114 0 12.9149 0Z" fill="#FBFBFC"/>
</svg>
