<svg width="33" height="24" viewBox="0 0 33 24" fill="none" xmlns="http://www.w3.org/2000/svg">
<path d="M24.6114 2.67325C29.2046 4.0093 32.5 7.66243 32.5 11.9586C32.5 14.8829 30.972 17.5113 28.5474 19.312L28.336 19.4614L28.0006 19.692L27.9663 19.7148C27.1149 20.3396 27.6417 21.6541 28.4303 22.7055L28.5766 22.893C28.6261 22.9547 28.6762 23.0151 28.7269 23.0742L28.88 23.2469L29.0154 23.3923L29.1171 23.5088C29.4229 23.8752 29.3931 24.0325 29.0291 23.9945L28.9103 23.9774C28.8375 23.9645 28.7653 23.9488 28.6937 23.9303C27.9153 23.7385 27.1593 23.4659 26.4383 23.1168L26.1686 22.981C26.0817 22.9356 25.9973 22.8905 25.9154 22.8459L25.6783 22.7124L25.4543 22.5806L24.5823 22.0483L24.4103 21.9495L24.2429 21.8603C23.8017 21.6353 23.3971 21.5234 22.9103 21.616L22.8137 21.6365C21.7386 21.7951 20.6487 21.8292 19.5657 21.7382C24.6069 19.7954 28.1051 15.5413 28.1051 10.6061C28.1051 7.62835 26.832 4.89887 24.7143 2.77549L24.6114 2.67325ZM13.4149 0C20.5474 0 26.3303 4.82388 26.3303 10.7725C26.3303 16.7228 20.5474 21.5462 13.4149 21.5462C12.7691 21.5454 12.1364 21.507 11.5166 21.4308L11.1423 21.3797C10.6251 21.2576 10.1966 21.34 9.74629 21.5444L9.576 21.6257L9.40229 21.7183L9.224 21.8194L8.74971 22.1074L8.43829 22.2983L8.10229 22.4993L7.86229 22.6368L7.608 22.7766L7.47486 22.8464L7.19657 22.9867C6.34478 23.4008 5.44861 23.7177 4.52514 23.9314L4.38686 23.9564C3.91771 24.0263 3.86229 23.8558 4.22343 23.4264L4.332 23.3031L4.39429 23.2367C4.44571 23.1821 4.49714 23.1265 4.54857 23.0697L4.7 22.8947L4.84971 22.7124L4.99429 22.5238L5.13429 22.3301L5.26686 22.1324C5.28857 22.0994 5.30971 22.0661 5.33029 22.0324L5.45086 21.8307C6.01143 20.8509 6.23029 19.821 5.48286 19.2745L4.93829 18.8996L4.84457 18.8326C2.18 16.8597 0.5 13.978 0.5 10.7725C0.5 4.82388 6.28114 0 13.4149 0Z" fill="#FBFBFC"/>
</svg>
