<svg width="19" height="19" viewBox="0 0 19 19" fill="none" xmlns="http://www.w3.org/2000/svg">
<path d="M5.405 4.25C5.45 4.9175 5.5625 5.57 5.7425 6.1925L4.8425 7.0925C4.535 6.1925 4.34 5.24 4.2725 4.25H5.405ZM12.8 13.265C13.4375 13.445 14.09 13.5575 14.75 13.6025V14.72C13.76 14.6525 12.8075 14.4575 11.9 14.1575L12.8 13.265ZM6.125 2.75H3.5C3.0875 2.75 2.75 3.0875 2.75 3.5C2.75 10.5425 8.4575 16.25 15.5 16.25C15.9125 16.25 16.25 15.9125 16.25 15.5V12.8825C16.25 12.47 15.9125 12.1325 15.5 12.1325C14.57 12.1325 13.6625 11.9825 12.8225 11.705C12.7475 11.675 12.665 11.6675 12.59 11.6675C12.395 11.6675 12.2075 11.7425 12.0575 11.885L10.4075 13.535C8.285 12.4475 6.545 10.715 5.465 8.5925L7.115 6.9425C7.325 6.7325 7.385 6.44 7.3025 6.1775C7.025 5.3375 6.875 4.4375 6.875 3.5C6.875 3.0875 6.5375 2.75 6.125 2.75Z" fill="#6E6E6E"/>
</svg>
