<svg width="12" height="12" viewBox="0 0 12 12" fill="none" xmlns="http://www.w3.org/2000/svg">
<path d="M7.54425 1.83352C7.42001 1.70895 7.26829 1.61525 7.10127 1.55995C6.93426 1.50465 6.75659 1.48929 6.58256 1.51511C6.40853 1.54093 6.24298 1.60721 6.09921 1.70862C5.95544 1.81003 5.83746 1.94374 5.75475 2.09902L4.23975 4.94152L2.1315 5.64427C2.07081 5.66443 2.01629 5.69978 1.97311 5.74695C1.92993 5.79412 1.89953 5.85154 1.8848 5.91377C1.87006 5.976 1.87149 6.04097 1.88894 6.10249C1.90639 6.16401 1.93929 6.22005 1.9845 6.26527L3.59475 7.87477L1.6095 9.86002L1.5 10.4998L2.13975 10.3903L4.125 8.40502L5.7345 10.0153C5.77973 10.0605 5.83576 10.0934 5.89729 10.1108C5.95881 10.1283 6.02377 10.1297 6.086 10.115C6.14823 10.1002 6.20566 10.0698 6.25283 10.0267C6.3 9.98349 6.33534 9.92896 6.3555 9.86827L7.05825 7.76077L9.8925 6.24277C10.047 6.1599 10.18 6.04207 10.2808 5.89869C10.3817 5.7553 10.4476 5.59033 10.4734 5.41694C10.4992 5.24354 10.4841 5.06651 10.4294 4.89998C10.3746 4.73345 10.2817 4.58202 10.158 4.45777L7.54425 1.83352Z" fill="#565560"/>
</svg>
