<svg width="24" height="24" viewBox="0 0 24 24" fill="none" xmlns="http://www.w3.org/2000/svg">
<circle cx="12" cy="12" r="12" fill="url(#paint0_linear_639_10592)"/>
<path d="M5.83008 6.47461C5.96593 6.39008 6.09186 6.37691 6.24707 6.43652L18.8311 11.627V11.6279C18.9484 11.6784 19.0096 11.7341 19.043 11.7822C19.075 11.8286 19.0996 11.895 19.0996 12C19.0996 12.1049 19.075 12.1705 19.043 12.2168C19.0101 12.2643 18.9503 12.3191 18.8359 12.3691L6.24902 17.5615C6.09274 17.6226 5.96665 17.6108 5.83008 17.5254C5.70322 17.446 5.65043 17.3517 5.65039 17.1953V13.9121L11.4893 12.4854C11.9977 12.3611 11.9977 11.6379 11.4893 11.5137L5.65039 10.0869V6.80469C5.65039 6.64738 5.70388 6.55328 5.83008 6.47461Z" stroke="white" stroke-width="0.8"/>
<defs>
<linearGradient id="paint0_linear_639_10592" x1="12" y1="0" x2="12" y2="24" gradientUnits="userSpaceOnUse">
<stop stop-color="#57A1FF"/>
<stop offset="1" stop-color="#3B69C6"/>
</linearGradient>
</defs>
</svg>
