<svg width="18" height="19" viewBox="0 0 18 19" fill="none" xmlns="http://www.w3.org/2000/svg">
<path d="M15.8766 10.431C15.9136 10.127 15.9414 9.823 15.9414 9.5C15.9414 9.177 15.9136 8.873 15.8766 8.569L17.8289 7.0015C18.0047 6.859 18.051 6.6025 17.9399 6.3935L16.0894 3.1065C16.0062 2.9545 15.8489 2.869 15.6823 2.869C15.6268 2.869 15.5713 2.8785 15.525 2.8975L13.2212 3.8475C12.74 3.4675 12.2219 3.154 11.6575 2.9165L11.3059 0.399C11.2782 0.171 11.0839 0 10.8525 0H7.15155C6.92024 0 6.72593 0.171 6.69818 0.399L6.34658 2.9165C5.78218 3.154 5.26404 3.477 4.78291 3.8475L2.47905 2.8975C2.42353 2.8785 2.36802 2.869 2.3125 2.869C2.15521 2.869 1.99792 2.9545 1.91464 3.1065L0.0641489 6.3935C-0.0561333 6.6025 -0.000618345 6.859 0.175179 7.0015L2.12745 8.569C2.09044 8.873 2.06268 9.1865 2.06268 9.5C2.06268 9.8135 2.09044 10.127 2.12745 10.431L0.175179 11.9985C-0.000618345 12.141 -0.0468809 12.3975 0.0641489 12.6065L1.91464 15.8935C1.99792 16.0455 2.15521 16.131 2.32175 16.131C2.37727 16.131 2.43278 16.1215 2.47905 16.1025L4.78291 15.1525C5.26404 15.5325 5.78218 15.846 6.34658 16.0835L6.69818 18.601C6.72593 18.829 6.92024 19 7.15155 19H10.8525C11.0839 19 11.2782 18.829 11.3059 18.601L11.6575 16.0835C12.2219 15.846 12.74 15.523 13.2212 15.1525L15.525 16.1025C15.5806 16.1215 15.6361 16.131 15.6916 16.131C15.8489 16.131 16.0062 16.0455 16.0894 15.8935L17.9399 12.6065C18.051 12.3975 18.0047 12.141 17.8289 11.9985L15.8766 10.431ZM14.0446 8.8065C14.0817 9.101 14.0909 9.3005 14.0909 9.5C14.0909 9.6995 14.0724 9.9085 14.0446 10.1935L13.9151 11.267L14.7386 11.932L15.7378 12.73L15.0902 13.8795L13.9151 13.395L12.9529 12.996L12.1201 13.642C11.7223 13.946 11.3429 14.174 10.9636 14.3355L9.98281 14.744L9.83477 15.8175L9.64972 17.1H8.35437L8.17857 15.8175L8.03053 14.744L7.04977 14.3355C6.65191 14.1645 6.28181 13.946 5.91172 13.661L5.06974 12.996L4.08898 13.4045L2.91391 13.889L2.26624 12.7395L3.26551 11.9415L4.08898 11.2765L3.95944 10.203C3.93168 9.9085 3.91318 9.69 3.91318 9.5C3.91318 9.31 3.93168 9.0915 3.95944 8.8065L4.08898 7.733L3.26551 7.068L2.26624 6.27L2.91391 5.1205L4.08898 5.605L5.05123 6.004L5.88396 5.358C6.28181 5.054 6.66117 4.826 7.04052 4.6645L8.02128 4.256L8.16932 3.1825L8.35437 1.9H9.64046L9.81626 3.1825L9.9643 4.256L10.9451 4.6645C11.3429 4.8355 11.713 5.054 12.0831 5.339L12.9251 6.004L13.9059 5.5955L15.0809 5.111L15.7286 6.2605L14.7386 7.068L13.9151 7.733L14.0446 8.8065ZM9.00204 5.7C6.95725 5.7 5.30105 7.4005 5.30105 9.5C5.30105 11.5995 6.95725 13.3 9.00204 13.3C11.0468 13.3 12.703 11.5995 12.703 9.5C12.703 7.4005 11.0468 5.7 9.00204 5.7ZM9.00204 11.4C7.98427 11.4 7.15155 10.545 7.15155 9.5C7.15155 8.455 7.98427 7.6 9.00204 7.6C10.0198 7.6 10.8525 8.455 10.8525 9.5C10.8525 10.545 10.0198 11.4 9.00204 11.4Z" fill="#6E6E6E"/>
</svg>
