<svg width="19" height="19" viewBox="0 0 19 19" fill="none" xmlns="http://www.w3.org/2000/svg">
<path d="M15.0725 10.235C15.1025 9.995 15.125 9.755 15.125 9.5C15.125 9.245 15.1025 9.005 15.0725 8.765L16.655 7.5275C16.7975 7.415 16.835 7.2125 16.745 7.0475L15.245 4.4525C15.1775 4.3325 15.05 4.265 14.915 4.265C14.87 4.265 14.825 4.2725 14.7875 4.2875L12.92 5.0375C12.53 4.7375 12.11 4.49 11.6525 4.3025L11.3675 2.315C11.345 2.135 11.1875 2 11 2H8C7.8125 2 7.655 2.135 7.6325 2.315L7.3475 4.3025C6.89 4.49 6.47 4.745 6.08 5.0375L4.2125 4.2875C4.1675 4.2725 4.1225 4.265 4.0775 4.265C3.95 4.265 3.8225 4.3325 3.755 4.4525L2.255 7.0475C2.1575 7.2125 2.2025 7.415 2.345 7.5275L3.9275 8.765C3.8975 9.005 3.875 9.2525 3.875 9.5C3.875 9.7475 3.8975 9.995 3.9275 10.235L2.345 11.4725C2.2025 11.585 2.165 11.7875 2.255 11.9525L3.755 14.5475C3.8225 14.6675 3.95 14.735 4.085 14.735C4.13 14.735 4.175 14.7275 4.2125 14.7125L6.08 13.9625C6.47 14.2625 6.89 14.51 7.3475 14.6975L7.6325 16.685C7.655 16.865 7.8125 17 8 17H11C11.1875 17 11.345 16.865 11.3675 16.685L11.6525 14.6975C12.11 14.51 12.53 14.255 12.92 13.9625L14.7875 14.7125C14.8325 14.7275 14.8775 14.735 14.9225 14.735C15.05 14.735 15.1775 14.6675 15.245 14.5475L16.745 11.9525C16.835 11.7875 16.7975 11.585 16.655 11.4725L15.0725 10.235ZM13.5875 8.9525C13.6175 9.185 13.625 9.3425 13.625 9.5C13.625 9.6575 13.61 9.8225 13.5875 10.0475L13.4825 10.895L14.15 11.42L14.96 12.05L14.435 12.9575L13.4825 12.575L12.7025 12.26L12.0275 12.77C11.705 13.01 11.3975 13.19 11.09 13.3175L10.295 13.64L10.175 14.4875L10.025 15.5H8.975L8.8325 14.4875L8.7125 13.64L7.9175 13.3175C7.595 13.1825 7.295 13.01 6.995 12.785L6.3125 12.26L5.5175 12.5825L4.565 12.965L4.04 12.0575L4.85 11.4275L5.5175 10.9025L5.4125 10.055C5.39 9.8225 5.375 9.65 5.375 9.5C5.375 9.35 5.39 9.1775 5.4125 8.9525L5.5175 8.105L4.85 7.58L4.04 6.95L4.565 6.0425L5.5175 6.425L6.2975 6.74L6.9725 6.23C7.295 5.99 7.6025 5.81 7.91 5.6825L8.705 5.36L8.825 4.5125L8.975 3.5H10.0175L10.16 4.5125L10.28 5.36L11.075 5.6825C11.3975 5.8175 11.6975 5.99 11.9975 6.215L12.68 6.74L13.475 6.4175L14.4275 6.035L14.9525 6.9425L14.15 7.58L13.4825 8.105L13.5875 8.9525ZM9.5 6.5C7.8425 6.5 6.5 7.8425 6.5 9.5C6.5 11.1575 7.8425 12.5 9.5 12.5C11.1575 12.5 12.5 11.1575 12.5 9.5C12.5 7.8425 11.1575 6.5 9.5 6.5ZM9.5 11C8.675 11 8 10.325 8 9.5C8 8.675 8.675 8 9.5 8C10.325 8 11 8.675 11 9.5C11 10.325 10.325 11 9.5 11Z" fill="#6E6E6E"/>
</svg>
