<svg width="19" height="19" viewBox="0 0 19 19" fill="none" xmlns="http://www.w3.org/2000/svg">
<path d="M18.6494 16.4922C18.6494 17.3588 17.9309 18.1066 17.0166 18.1484L16.8311 18.1465C7.97034 17.6249 0.901823 10.918 0.353516 2.55176C0.294764 1.65325 1.09287 0.849669 2.11914 0.849609H3.94922C4.8644 0.849689 5.60151 1.49228 5.70605 2.31445V2.31543L6.0127 4.84082C6.07301 5.33875 5.89332 5.8306 5.5166 6.1875L3.56055 8.04199L3.36621 8.22559L3.49219 8.46094C5.05169 11.3748 7.56208 13.7401 10.6191 15.2139L10.8369 15.3193L11.0117 15.1533L12.958 13.3096C13.2886 12.9964 13.737 12.8206 14.21 12.8213L14.4141 12.832L17.0996 13.1221V13.123C18.0084 13.2255 18.6588 13.9413 18.6504 14.7549H18.6494V16.4922Z" stroke="#9EABBA" stroke-width="0.7"/>
</svg>
